<?xml version="1.0" standalone="no"?>
<!DOCTYPE svg PUBLIC "-//W3C//DTD SVG 20010904//EN"
 "http://www.w3.org/TR/2001/REC-SVG-20010904/DTD/svg10.dtd">
<svg version="1.0" xmlns="http://www.w3.org/2000/svg"
 width="700.000000pt" height="700.000000pt" viewBox="0 0 700.000000 700.000000"
 preserveAspectRatio="xMidYMid meet">
<metadata>
Created by potrace 1.14, written by Peter Selinger 2001-2017
</metadata>
<g transform="translate(0.000000,700.000000) scale(0.100000,-0.100000)"
fill="#000000" stroke="none">
<path d="M4668 6565 c-2 -1 -30 -5 -62 -9 -123 -13 -269 -114 -325 -224 -36
-70 -49 -134 -65 -312 -2 -19 -6 -53 -9 -75 -4 -22 -9 -67 -12 -100 -5 -55
-17 -164 -30 -275 -7 -53 -11 -90 -25 -225 -15 -136 -19 -174 -25 -215 -4 -32
-14 -132 -20 -190 -1 -14 -6 -48 -9 -76 l-8 -52 -434 0 -435 0 5 37 c3 20 8
59 11 86 2 28 7 73 10 100 4 28 8 66 10 85 4 38 14 123 20 180 4 37 21 193 30
275 3 28 9 86 15 130 5 44 11 100 14 125 3 25 10 90 16 145 18 151 18 184 -2
259 -24 86 -55 141 -120 205 -89 88 -205 128 -340 118 -200 -16 -368 -174
-394 -372 -3 -26 -13 -107 -20 -170 -3 -27 -7 -61 -9 -75 -2 -14 -7 -58 -10
-99 -4 -41 -8 -82 -10 -91 -2 -9 -6 -49 -10 -89 -3 -40 -8 -80 -10 -89 -1 -9
-6 -46 -9 -82 -4 -36 -9 -81 -11 -100 -3 -19 -7 -60 -10 -90 -3 -30 -7 -71
-10 -90 -2 -19 -7 -60 -10 -90 -4 -30 -8 -68 -10 -85 -2 -16 -6 -57 -10 -90
-3 -33 -8 -69 -10 -80 -2 -11 -4 -27 -4 -36 -1 -15 -53 -17 -600 -17 -329 0
-618 -3 -642 -7 -66 -11 -167 -62 -222 -114 -220 -206 -166 -571 105 -704 40
-20 96 -39 123 -43 28 -4 295 -7 594 -7 l543 0 -6 -71 c-4 -39 -9 -78 -11 -86
-2 -8 -6 -48 -10 -89 -3 -41 -8 -84 -10 -95 -2 -12 -7 -50 -10 -86 -3 -36 -7
-76 -9 -90 -3 -14 -7 -56 -11 -95 -3 -38 -8 -79 -10 -90 -2 -11 -7 -51 -10
-90 -4 -38 -8 -72 -10 -76 -2 -3 -231 -6 -509 -6 -368 -1 -519 -4 -558 -13
-149 -35 -278 -157 -322 -305 -28 -92 -14 -231 33 -324 30 -58 113 -143 170
-174 106 -58 114 -59 618 -59 254 1 465 -2 467 -6 2 -4 -2 -61 -10 -127 -19
-170 -23 -202 -30 -270 -3 -33 -7 -71 -9 -85 -2 -14 -6 -47 -9 -75 -3 -27 -8
-72 -12 -100 -3 -27 -7 -70 -9 -95 -3 -25 -7 -67 -11 -95 -7 -52 -7 -56 -18
-170 -3 -38 -8 -81 -11 -95 -41 -242 -9 -385 117 -509 134 -132 338 -160 511
-68 106 56 206 195 221 308 11 89 31 265 51 459 2 19 9 73 14 120 6 47 13 110
16 140 3 30 7 71 10 90 6 49 16 138 20 180 4 36 6 56 31 267 8 67 14 123 14
126 0 3 196 5 435 5 l435 1 -6 -47 c-3 -26 -7 -60 -8 -77 -2 -16 -6 -52 -9
-80 -4 -27 -9 -77 -12 -110 -3 -33 -8 -71 -10 -85 -3 -14 -7 -50 -10 -81 -2
-31 -7 -72 -9 -90 -3 -19 -8 -61 -11 -94 -3 -33 -8 -78 -11 -100 -3 -22 -7
-56 -8 -75 -5 -48 -26 -237 -31 -280 -2 -19 -7 -60 -11 -90 -13 -105 -6 -183
20 -254 66 -174 222 -285 406 -287 121 -1 222 41 312 132 91 90 123 182 143
399 3 41 8 84 10 95 2 11 7 51 10 88 4 37 8 76 10 85 1 9 6 52 10 95 3 43 8
88 10 100 2 12 7 49 10 82 9 86 22 208 30 265 2 19 7 62 10 95 3 33 8 71 10
85 2 14 6 54 10 90 3 36 7 74 10 85 2 11 4 27 4 36 1 16 52 17 609 17 393 1
625 5 656 12 234 52 382 299 321 533 -22 85 -51 134 -116 200 -66 66 -156 112
-238 123 -29 4 -294 7 -589 8 l-537 1 -1 40 c0 22 3 60 7 85 3 25 10 77 13
115 4 39 9 86 11 105 3 19 7 62 10 95 3 33 8 71 10 85 2 14 7 54 10 90 3 36 8
76 10 90 2 14 7 54 10 90 4 35 8 67 10 71 3 3 233 6 512 6 537 1 564 3 655 49
217 110 299 379 184 601 -44 87 -173 188 -266 209 -19 4 -42 9 -50 11 -8 2
-223 4 -477 4 l-462 2 4 31 c2 17 6 58 10 91 3 33 8 76 10 95 3 19 7 55 9 80
3 25 12 106 20 180 8 74 18 162 21 195 3 33 8 76 11 95 2 19 7 55 9 80 2 25 7
61 10 80 2 19 7 67 10 105 4 39 8 77 10 85 7 28 18 165 17 214 -5 199 -156
371 -363 410 -37 8 -69 12 -71 11z m-693 -2704 c-4 -42 -8 -83 -10 -91 -2 -8
-6 -49 -10 -90 -3 -41 -8 -82 -10 -90 -2 -8 -7 -48 -10 -87 -3 -40 -8 -81 -10
-92 -2 -11 -7 -52 -10 -93 -4 -40 -8 -86 -11 -103 -2 -16 -6 -55 -10 -85 -3
-30 -11 -58 -17 -61 -5 -4 -201 -7 -434 -6 l-425 0 7 71 c4 39 9 85 10 101 14
128 16 153 20 172 2 12 6 57 10 100 4 43 8 85 10 93 2 8 7 42 10 75 3 33 8 76
10 95 3 19 7 62 11 95 3 33 8 63 10 66 2 3 197 6 435 6 l431 0 -7 -76z"/>
</g>
</svg>
